<svg xmlns="http://www.w3.org/2000/svg" viewBox="-0.979 11.864 156.543 37.808" fill="none" role="img" aria-label="Almasix">
  <defs>
    <linearGradient id="left" x1="140.4" y1="88" x2="256.0" y2="372" gradientUnits="userSpaceOnUse">
      <stop stop-color="#FF7A4D"/>
      <stop offset="1" stop-color="#F1511B"/>
    </linearGradient>
    <linearGradient id="right" x1="256.0" y1="88" x2="343.1" y2="372" gradientUnits="userSpaceOnUse">
      <stop stop-color="#F1511B"/>
      <stop offset="1" stop-color="#B83208"/>
    </linearGradient>
    <linearGradient id="bar" x1="256" y1="232" x2="256" y2="348" gradientUnits="userSpaceOnUse">
      <stop offset="0" stop-color="#E3F3FB" stop-opacity="0.95"/>
      <stop offset="0.4" stop-color="#6BB0D9" stop-opacity="0.78"/>
      <stop offset="1" stop-color="#4A9BC9" stop-opacity="0.92"/>
    </linearGradient>
    <linearGradient id="bar-glass" x1="256" y1="232" x2="256" y2="300" gradientUnits="userSpaceOnUse">
      <stop offset="0" stop-color="#FFFFFF" stop-opacity="0.72"/>
      <stop offset="0.5" stop-color="#FFFFFF" stop-opacity="0.32"/>
      <stop offset="1" stop-color="#FFFFFF" stop-opacity="0"/>
    </linearGradient>
    <filter id="diamond-glow" x="-120%" y="-120%" width="340%" height="340%" color-interpolation-filters="sRGB">
      <feGaussianBlur in="SourceAlpha" stdDeviation="70" result="blur"/>
      <feFlood flood-color="#6BB0D9" flood-opacity="0.8" result="flood"/>
      <feComposite in="flood" in2="blur" operator="in" result="glow"/>
      <feMerge>
        <feMergeNode in="glow"/>
        <feMergeNode in="glow"/>
        <feMergeNode in="SourceGraphic"/>
      </feMerge>
    </filter>
    <linearGradient id="cap" x1="256.0" y1="100" x2="256.0" y2="208" gradientUnits="userSpaceOnUse">
      <stop stop-color="#FFFFFF" stop-opacity="0.2"/>
      <stop offset="1" stop-color="#FFFFFF" stop-opacity="0"/>
    </linearGradient>
  </defs>

  <!-- Wordmark: Outfit ExtraBold, size 48, -0.09em tracking; shared baseline y=48 -->
  <g transform="matrix(0.12 0 0 0.12 -16.827 3.423)" shape-rendering="geometricPrecision">
    <path fill="url(#left)"  d="M256.0 88L140.4 372H197.4L256.0 208Z"/>
    <path fill="url(#right)" d="M256.0 88L256.0 208L314.6 372H371.6Z"/>
    <path fill="url(#bar)" filter="url(#diamond-glow)" d="M182.3 300L256.0 232L329.7 300L256.0 348Z"/>
    <path fill="url(#bar-glass)" d="M182.3 300L256.0 232L329.7 300L256.0 278Z"/>
    <path fill="url(#cap)"   d="M256.0 108L229.2 168L256.0 208L282.8 168Z"/>
  </g>

  <path fill="#F1511B" d="M28.634356 48.0V13.008H36.986356V48.0Z M37.562356 48.0V24.528H45.914356V26.016Q48.410356 24.048 52.058356 24.048Q56.042356 24.048 58.538356 26.928Q61.322356 24.048 65.882356 24.048Q68.618356 24.048 70.754356 25.2Q72.890356 26.352 74.138356 28.536Q75.386356 30.72 75.386356 33.744V48.0H67.034356V34.416Q67.034356 32.928 66.122356 32.088Q65.210356 31.248 63.866356 31.248Q62.426356 31.248 61.538356 32.088Q60.650356 32.928 60.650356 34.416V48.0H52.298356V34.416Q52.298356 32.928 51.386356 32.088Q50.474356 31.248 49.130356 31.248Q47.690356 31.248 46.802356 32.088Q45.914356 32.928 45.914356 34.416V48.0Z M85.634356 48.48Q82.370356 48.48 79.826356 46.896Q77.282356 45.312 75.842356 42.552Q74.402356 39.792 74.402356 36.288Q74.402356 32.736 75.842356 29.976Q77.282356 27.216 79.826356 25.632Q82.370356 24.048 85.634356 24.048Q87.410356 24.048 88.970356 24.6Q90.530356 25.152 91.682356 26.16V24.528H99.890356V48.0H91.682356V46.416Q90.530356 47.376 88.970356 47.928Q87.410356 48.48 85.634356 48.48ZM87.410356 41.04Q89.474356 41.04 90.746356 39.72Q92.018356 38.4 92.018356 36.24Q92.018356 34.176 90.746356 32.832Q89.474356 31.488 87.458356 31.488Q85.442356 31.488 84.146356 32.832Q82.850356 34.176 82.850356 36.24Q82.850356 38.352 84.146356 39.696Q85.442356 41.04 87.410356 41.04Z M110.066356 48.672Q106.850356 48.672 103.778356 47.448Q100.706356 46.224 98.882356 44.256L103.442356 39.6Q104.594356 40.8 106.202356 41.472Q107.810356 42.144 109.634356 42.144Q111.794356 42.144 111.794356 41.04Q111.794356 40.272 111.002356 39.864Q110.210356 39.456 108.938356 39.144Q107.666356 38.832 106.250356 38.4Q104.834356 37.968 103.586356 37.176Q102.338356 36.384 101.522356 35.016Q100.706356 33.648 100.706356 31.44Q100.706356 29.232 101.930356 27.504Q103.154356 25.776 105.362356 24.792Q107.570356 23.808 110.546356 23.808Q113.570356 23.808 116.306356 24.84Q119.042356 25.872 120.722356 27.936L116.114356 32.592Q114.962356 31.296 113.570356 30.792Q112.178356 30.288 111.026356 30.288Q108.962356 30.288 108.962356 31.44Q108.962356 32.112 109.754356 32.472Q110.546356 32.832 111.794356 33.144Q113.042356 33.456 114.458356 33.936Q115.874356 34.416 117.122356 35.256Q118.370356 36.096 119.162356 37.512Q119.954356 38.928 119.954356 41.088Q119.954356 44.592 117.266356 46.632Q114.578356 48.672 110.066356 48.672Z M124.058356 21.792Q122.186356 21.792 120.938356 20.496Q119.690356 19.2 119.690356 17.328Q119.690356 15.456 120.938356 14.16Q122.186356 12.864 124.058356 12.864Q125.978356 12.864 127.226356 14.16Q128.474356 15.456 128.474356 17.328Q128.474356 19.2 127.226356 20.496Q125.978356 21.792 124.058356 21.792ZM119.882356 48.0V24.528H128.282356V48.0Z"/>
  <path fill="#4A9BC9" d="M128.260356 48.0 136.564356 36.048 128.740356 24.528H138.388356L141.748356 30.288L145.156356 24.528H154.084356L146.404356 35.856L154.564356 48.0H144.964356L141.220356 41.568L137.188356 48.0Z"/>
</svg>
